<svg width="190" height="58" viewBox="0 0 190 58" fill="none" xmlns="http://www.w3.org/2000/svg">
<path fill-rule="evenodd" clip-rule="evenodd" d="M29 28.8L14.5 0L0 28.8H0.210142L14.5 22L28.7899 28.8H29Z" fill="#3E6D9C"/>
<path fill-rule="evenodd" clip-rule="evenodd" d="M0 29.2L14.5 58L29 29.2H28.7899L14.5 36L0.210142 29.2H0Z" fill="#F5D5AE"/>
<path d="M37.5824 41V14.8182H42.3253V37.0241H53.8565V41H37.5824ZM66.3338 41.3835C64.4162 41.3835 62.7543 40.9616 61.348 40.1179C59.9418 39.2741 58.8509 38.0937 58.0753 36.5767C57.3082 35.0597 56.9247 33.2869 56.9247 31.2585C56.9247 29.2301 57.3082 27.4531 58.0753 25.9276C58.8509 24.402 59.9418 23.2173 61.348 22.3736C62.7543 21.5298 64.4162 21.108 66.3338 21.108C68.2514 21.108 69.9134 21.5298 71.3196 22.3736C72.7259 23.2173 73.8125 24.402 74.5795 25.9276C75.3551 27.4531 75.7429 29.2301 75.7429 31.2585C75.7429 33.2869 75.3551 35.0597 74.5795 36.5767C73.8125 38.0937 72.7259 39.2741 71.3196 40.1179C69.9134 40.9616 68.2514 41.3835 66.3338 41.3835ZM66.3594 37.6761C67.3991 37.6761 68.2685 37.3906 68.9673 36.8196C69.6662 36.2401 70.1861 35.4645 70.527 34.4929C70.8764 33.5213 71.0511 32.4389 71.0511 31.2457C71.0511 30.044 70.8764 28.9574 70.527 27.9858C70.1861 27.0057 69.6662 26.2259 68.9673 25.6463C68.2685 25.0668 67.3991 24.777 66.3594 24.777C65.294 24.777 64.4077 25.0668 63.7003 25.6463C63.0014 26.2259 62.4773 27.0057 62.1278 27.9858C61.7869 28.9574 61.6165 30.044 61.6165 31.2457C61.6165 32.4389 61.7869 33.5213 62.1278 34.4929C62.4773 35.4645 63.0014 36.2401 63.7003 36.8196C64.4077 37.3906 65.294 37.6761 66.3594 37.6761ZM88.2106 48.7727C86.5487 48.7727 85.1211 48.5469 83.9279 48.0952C82.7347 47.652 81.7759 47.0554 81.0515 46.3054C80.3271 45.5554 79.8242 44.7244 79.543 43.8125L83.7106 42.8026C83.8981 43.1861 84.1708 43.5653 84.5288 43.9403C84.8867 44.3239 85.3683 44.6392 85.9734 44.8864C86.587 45.142 87.3583 45.2699 88.2873 45.2699C89.5998 45.2699 90.6864 44.9503 91.5472 44.3111C92.408 43.6804 92.8384 42.6406 92.8384 41.1918V37.4716H92.6083C92.3697 37.9489 92.0202 38.4389 91.56 38.9418C91.1083 39.4446 90.5075 39.8665 89.7575 40.2074C89.016 40.5483 88.0827 40.7188 86.9577 40.7188C85.4492 40.7188 84.0813 40.3651 82.854 39.6577C81.6353 38.9418 80.6637 37.8764 79.9393 36.4616C79.2234 35.0384 78.8654 33.2571 78.8654 31.1179C78.8654 28.9616 79.2234 27.142 79.9393 25.6591C80.6637 24.1676 81.6396 23.0384 82.8668 22.2713C84.0941 21.4957 85.462 21.108 86.9705 21.108C88.1211 21.108 89.0671 21.304 89.8086 21.696C90.5586 22.0795 91.1552 22.544 91.5984 23.0895C92.0415 23.6264 92.3782 24.1335 92.6083 24.6108H92.864V21.3636H97.4279V41.3196C97.4279 42.9986 97.0273 44.3878 96.2262 45.4872C95.4251 46.5866 94.3299 47.4091 92.9407 47.9545C91.5515 48.5 89.9748 48.7727 88.2106 48.7727ZM88.2489 37.0881C89.229 37.0881 90.0643 36.8494 90.7546 36.3722C91.445 35.8949 91.9691 35.2088 92.3271 34.3139C92.685 33.419 92.864 32.3452 92.864 31.0923C92.864 29.8565 92.685 28.7741 92.3271 27.8452C91.9776 26.9162 91.4577 26.196 90.7674 25.6847C90.0856 25.1648 89.2461 24.9048 88.2489 24.9048C87.2177 24.9048 86.3569 25.1733 85.6665 25.7102C84.9762 26.2472 84.4563 26.9844 84.1069 27.9219C83.7575 28.8509 83.5827 29.9077 83.5827 31.0923C83.5827 32.294 83.7575 33.3466 84.1069 34.25C84.4648 35.1449 84.989 35.8437 85.6793 36.3466C86.3782 36.8409 87.2347 37.0881 88.2489 37.0881ZM102.375 41V14.8182H112.194C114.205 14.8182 115.892 15.1932 117.256 15.9432C118.628 16.6932 119.664 17.7244 120.363 19.0369C121.07 20.3409 121.424 21.8239 121.424 23.4858C121.424 25.1648 121.07 26.6562 120.363 27.9602C119.655 29.2642 118.611 30.2912 117.23 31.0412C115.85 31.7827 114.15 32.1534 112.13 32.1534H105.623V28.2543H111.49C112.667 28.2543 113.63 28.0497 114.38 27.6406C115.13 27.2315 115.684 26.669 116.042 25.9531C116.408 25.2372 116.591 24.4148 116.591 23.4858C116.591 22.5568 116.408 21.7386 116.042 21.0312C115.684 20.3239 115.125 19.7741 114.367 19.3821C113.617 18.9815 112.65 18.7812 111.465 18.7812H107.118V41H102.375ZM133.623 41.3835C131.705 41.3835 130.043 40.9616 128.637 40.1179C127.231 39.2741 126.14 38.0937 125.364 36.5767C124.597 35.0597 124.214 33.2869 124.214 31.2585C124.214 29.2301 124.597 27.4531 125.364 25.9276C126.14 24.402 127.231 23.2173 128.637 22.3736C130.043 21.5298 131.705 21.108 133.623 21.108C135.54 21.108 137.202 21.5298 138.609 22.3736C140.015 23.2173 141.102 24.402 141.869 25.9276C142.644 27.4531 143.032 29.2301 143.032 31.2585C143.032 33.2869 142.644 35.0597 141.869 36.5767C141.102 38.0937 140.015 39.2741 138.609 40.1179C137.202 40.9616 135.54 41.3835 133.623 41.3835ZM133.648 37.6761C134.688 37.6761 135.558 37.3906 136.256 36.8196C136.955 36.2401 137.475 35.4645 137.816 34.4929C138.165 33.5213 138.34 32.4389 138.34 31.2457C138.34 30.044 138.165 28.9574 137.816 27.9858C137.475 27.0057 136.955 26.2259 136.256 25.6463C135.558 25.0668 134.688 24.777 133.648 24.777C132.583 24.777 131.697 25.0668 130.989 25.6463C130.29 26.2259 129.766 27.0057 129.417 27.9858C129.076 28.9574 128.906 30.044 128.906 31.2457C128.906 32.4389 129.076 33.5213 129.417 34.4929C129.766 35.4645 130.29 36.2401 130.989 36.8196C131.697 37.3906 132.583 37.6761 133.648 37.6761ZM162.48 26.554L158.261 27.0142C158.142 26.5881 157.933 26.1875 157.635 25.8125C157.345 25.4375 156.953 25.1349 156.458 24.9048C155.964 24.6747 155.359 24.5597 154.643 24.5597C153.68 24.5597 152.87 24.7685 152.214 25.1861C151.566 25.6037 151.247 26.1449 151.255 26.8097C151.247 27.3807 151.456 27.8452 151.882 28.2031C152.316 28.5611 153.032 28.8551 154.029 29.0852L157.379 29.8011C159.237 30.2017 160.618 30.8366 161.521 31.706C162.433 32.5753 162.893 33.7131 162.902 35.1193C162.893 36.3551 162.531 37.446 161.815 38.392C161.108 39.3295 160.123 40.0625 158.862 40.5909C157.6 41.1193 156.152 41.3835 154.515 41.3835C152.112 41.3835 150.177 40.8807 148.711 39.875C147.245 38.8608 146.372 37.4503 146.091 35.6435L150.603 35.2088C150.808 36.0952 151.243 36.7642 151.907 37.2159C152.572 37.6676 153.437 37.8935 154.502 37.8935C155.602 37.8935 156.484 37.6676 157.149 37.2159C157.822 36.7642 158.159 36.206 158.159 35.5412C158.159 34.9787 157.941 34.5142 157.507 34.1477C157.081 33.7812 156.416 33.5 155.512 33.304L152.163 32.6009C150.279 32.2088 148.886 31.5483 147.983 30.6193C147.079 29.6818 146.632 28.4972 146.64 27.0653C146.632 25.8551 146.96 24.8068 147.625 23.9205C148.298 23.0256 149.231 22.3352 150.424 21.8494C151.626 21.3551 153.011 21.108 154.579 21.108C156.88 21.108 158.691 21.598 160.012 22.5781C161.342 23.5582 162.164 24.8835 162.48 26.554ZM175.411 41.3835C173.442 41.3835 171.742 40.9744 170.31 40.1562C168.887 39.3295 167.792 38.1619 167.025 36.6534C166.257 35.1364 165.874 33.3509 165.874 31.2969C165.874 29.277 166.257 27.5043 167.025 25.9787C167.8 24.4446 168.882 23.2514 170.272 22.3991C171.661 21.5384 173.293 21.108 175.168 21.108C176.378 21.108 177.52 21.304 178.594 21.696C179.676 22.0795 180.631 22.6761 181.458 23.4858C182.293 24.2955 182.949 25.3267 183.426 26.5795C183.904 27.8239 184.142 29.3068 184.142 31.0284V32.4474H168.047V29.3281H179.706C179.698 28.4418 179.506 27.6534 179.131 26.9631C178.756 26.2642 178.232 25.7145 177.559 25.3139C176.894 24.9134 176.118 24.7131 175.232 24.7131C174.286 24.7131 173.455 24.9432 172.739 25.4034C172.023 25.8551 171.465 26.4517 171.064 27.1932C170.672 27.9261 170.472 28.7315 170.463 29.6094V32.3324C170.463 33.4744 170.672 34.4545 171.09 35.2727C171.507 36.0824 172.091 36.7045 172.841 37.1392C173.591 37.5653 174.469 37.7784 175.475 37.7784C176.148 37.7784 176.757 37.6847 177.303 37.4972C177.848 37.3011 178.321 37.0156 178.722 36.6406C179.123 36.2656 179.425 35.8011 179.63 35.2472L183.951 35.733C183.678 36.875 183.158 37.8722 182.391 38.7244C181.632 39.5682 180.661 40.2244 179.476 40.6932C178.292 41.1534 176.936 41.3835 175.411 41.3835Z" fill="black"/>
</svg>
