<svg width="154" height="35" viewBox="0 0 154 35" fill="none" xmlns="http://www.w3.org/2000/svg">
<path d="M0.6875 27V0.818181H7.79545V21.2727H18.3807V27H0.6875ZM30.8164 27.358C28.6857 27.358 26.8619 26.9361 25.3448 26.0923C23.8278 25.2401 22.6644 24.0554 21.8548 22.5384C21.0451 21.0128 20.6403 19.2443 20.6403 17.233C20.6403 15.2216 21.0451 13.4574 21.8548 11.9403C22.6644 10.4148 23.8278 9.23011 25.3448 8.38636C26.8619 7.53409 28.6857 7.10795 30.8164 7.10795C32.9471 7.10795 34.771 7.53409 36.288 8.38636C37.805 9.23011 38.9684 10.4148 39.7781 11.9403C40.5877 13.4574 40.9925 15.2216 40.9925 17.233C40.9925 19.2443 40.5877 21.0128 39.7781 22.5384C38.9684 24.0554 37.805 25.2401 36.288 26.0923C34.771 26.9361 32.9471 27.358 30.8164 27.358ZM30.8675 22.142C31.4641 22.142 31.9798 21.9418 32.4144 21.5412C32.8491 21.1406 33.1857 20.5696 33.4244 19.8281C33.663 19.0866 33.7823 18.2045 33.7823 17.1818C33.7823 16.1506 33.663 15.2685 33.4244 14.5355C33.1857 13.794 32.8491 13.223 32.4144 12.8224C31.9798 12.4219 31.4641 12.2216 30.8675 12.2216C30.2369 12.2216 29.6957 12.4219 29.244 12.8224C28.7923 13.223 28.4471 13.794 28.2085 14.5355C27.9698 15.2685 27.8505 16.1506 27.8505 17.1818C27.8505 18.2045 27.9698 19.0866 28.2085 19.8281C28.4471 20.5696 28.7923 21.1406 29.244 21.5412C29.6957 21.9418 30.2369 22.142 30.8675 22.142ZM53.3164 34.7727C51.3477 34.7727 49.6602 34.4915 48.2539 33.929C46.8562 33.375 45.7695 32.608 44.994 31.6278C44.2269 30.6563 43.7965 29.5398 43.7028 28.2784H50.5039C50.5721 28.696 50.7425 29.0327 51.0153 29.2884C51.288 29.544 51.6374 29.7273 52.0636 29.8381C52.4982 29.9574 52.984 30.017 53.521 30.017C54.4329 30.017 55.1871 29.7955 55.7837 29.3523C56.3888 28.9091 56.6914 28.108 56.6914 26.9489V23.625H56.4869C56.2312 24.2898 55.8391 24.8565 55.3107 25.3253C54.7823 25.7855 54.1474 26.1392 53.4059 26.3864C52.6644 26.625 51.8505 26.7443 50.9641 26.7443C49.5664 26.7443 48.2795 26.4205 47.1033 25.7727C45.9357 25.125 44.9982 24.098 44.2908 22.6918C43.592 21.2855 43.2425 19.4489 43.2425 17.1818C43.2425 14.8125 43.609 12.8864 44.342 11.4034C45.0835 9.92045 46.038 8.83381 47.2056 8.14347C48.3817 7.45312 49.6175 7.10795 50.913 7.10795C51.8846 7.10795 52.7369 7.27841 53.4698 7.61932C54.2028 7.9517 54.8164 8.39915 55.3107 8.96165C55.805 9.51562 56.18 10.125 56.4357 10.7898H56.5891V7.36364H63.646V26.9489C63.646 28.6108 63.2156 30.0213 62.3548 31.1804C61.5025 32.348 60.3008 33.2386 58.7496 33.8523C57.1985 34.4659 55.3874 34.7727 53.3164 34.7727ZM53.5721 21.733C54.2198 21.733 54.7738 21.554 55.234 21.196C55.7028 20.8295 56.0607 20.3097 56.3079 19.6364C56.5636 18.9545 56.6914 18.1364 56.6914 17.1818C56.6914 16.2102 56.5636 15.3793 56.3079 14.6889C56.0607 13.9901 55.7028 13.4574 55.234 13.0909C54.7738 12.7159 54.2198 12.5284 53.5721 12.5284C52.9244 12.5284 52.3704 12.7159 51.9102 13.0909C51.4585 13.4574 51.109 13.9901 50.8619 14.6889C50.6232 15.3793 50.5039 16.2102 50.5039 17.1818C50.5039 18.1534 50.6232 18.9801 50.8619 19.6619C51.109 20.3352 51.4585 20.8509 51.9102 21.2088C52.3704 21.5582 52.9244 21.733 53.5721 21.733ZM67.1328 27V0.818181H78.4339C80.3771 0.818181 82.0774 1.2017 83.5348 1.96875C84.9922 2.73579 86.1257 3.81392 86.9354 5.20312C87.745 6.59233 88.1499 8.21591 88.1499 10.0739C88.1499 11.9489 87.7322 13.5724 86.897 14.9446C86.0703 16.3168 84.907 17.3736 83.407 18.1151C81.9155 18.8565 80.1726 19.2273 78.1783 19.2273H71.4283V13.7045H76.7464C77.5817 13.7045 78.2933 13.5597 78.8814 13.2699C79.478 12.9716 79.9339 12.5497 80.2493 12.0043C80.5732 11.4588 80.7351 10.8153 80.7351 10.0739C80.7351 9.32386 80.5732 8.68466 80.2493 8.15625C79.9339 7.61932 79.478 7.21023 78.8814 6.92898C78.2933 6.6392 77.5817 6.49432 76.7464 6.49432H74.2408V27H67.1328ZM99.8984 27.358C97.7678 27.358 95.9439 26.9361 94.4268 26.0923C92.9098 25.2401 91.7464 24.0554 90.9368 22.5384C90.1271 21.0128 89.7223 19.2443 89.7223 17.233C89.7223 15.2216 90.1271 13.4574 90.9368 11.9403C91.7464 10.4148 92.9098 9.23011 94.4268 8.38636C95.9439 7.53409 97.7678 7.10795 99.8984 7.10795C102.029 7.10795 103.853 7.53409 105.37 8.38636C106.887 9.23011 108.05 10.4148 108.86 11.9403C109.67 13.4574 110.075 15.2216 110.075 17.233C110.075 19.2443 109.67 21.0128 108.86 22.5384C108.05 24.0554 106.887 25.2401 105.37 26.0923C103.853 26.9361 102.029 27.358 99.8984 27.358ZM99.9496 22.142C100.546 22.142 101.062 21.9418 101.496 21.5412C101.931 21.1406 102.268 20.5696 102.506 19.8281C102.745 19.0866 102.864 18.2045 102.864 17.1818C102.864 16.1506 102.745 15.2685 102.506 14.5355C102.268 13.794 101.931 13.223 101.496 12.8224C101.062 12.4219 100.546 12.2216 99.9496 12.2216C99.3189 12.2216 98.7777 12.4219 98.326 12.8224C97.8743 13.223 97.5291 13.794 97.2905 14.5355C97.0518 15.2685 96.9325 16.1506 96.9325 17.1818C96.9325 18.2045 97.0518 19.0866 97.2905 19.8281C97.5291 20.5696 97.8743 21.1406 98.326 21.5412C98.7777 21.9418 99.3189 22.142 99.9496 22.142ZM130.887 13.7557H124.393C124.359 13.3551 124.218 13.0099 123.971 12.7202C123.724 12.4304 123.404 12.2088 123.012 12.0554C122.629 11.8935 122.202 11.8125 121.734 11.8125C121.129 11.8125 120.609 11.9233 120.174 12.1449C119.739 12.3665 119.526 12.6818 119.535 13.0909C119.526 13.3807 119.65 13.6491 119.906 13.8963C120.17 14.1435 120.677 14.3352 121.427 14.4716L125.415 15.1875C127.427 15.554 128.923 16.1719 129.903 17.0412C130.891 17.902 131.39 19.0568 131.398 20.5057C131.39 21.9034 130.972 23.1179 130.146 24.1491C129.327 25.1719 128.207 25.9645 126.783 26.527C125.369 27.081 123.754 27.358 121.938 27.358C118.938 27.358 116.59 26.7443 114.894 25.517C113.207 24.2898 112.265 22.6705 112.069 20.6591H119.075C119.168 21.2812 119.475 21.7628 119.995 22.1037C120.523 22.4361 121.188 22.6023 121.989 22.6023C122.637 22.6023 123.17 22.4915 123.587 22.2699C124.013 22.0483 124.231 21.733 124.239 21.3239C124.231 20.9489 124.043 20.6506 123.677 20.429C123.319 20.2074 122.756 20.0284 121.989 19.892L118.512 19.2784C116.509 18.929 115.009 18.2642 114.012 17.2841C113.015 16.304 112.521 15.0426 112.529 13.5C112.521 12.1364 112.879 10.9815 113.603 10.0355C114.336 9.08096 115.38 8.35653 116.735 7.86222C118.099 7.35938 119.714 7.10795 121.58 7.10795C124.418 7.10795 126.656 7.69602 128.292 8.87216C129.937 10.0483 130.802 11.6761 130.887 13.7557ZM143.511 27.358C141.415 27.358 139.608 26.9574 138.091 26.1562C136.582 25.3466 135.419 24.1875 134.601 22.679C133.791 21.1619 133.386 19.3466 133.386 17.233C133.386 15.2045 133.795 13.4318 134.614 11.9148C135.432 10.3977 136.587 9.21733 138.078 8.37358C139.57 7.52983 141.33 7.10795 143.358 7.10795C144.841 7.10795 146.183 7.33807 147.385 7.7983C148.587 8.25852 149.614 8.92756 150.466 9.8054C151.318 10.6747 151.974 11.7315 152.435 12.9759C152.895 14.2202 153.125 15.6222 153.125 17.1818V18.8182H135.585V14.9318H146.631C146.622 14.3693 146.477 13.875 146.196 13.4489C145.923 13.0142 145.553 12.6776 145.084 12.4389C144.624 12.1918 144.099 12.0682 143.511 12.0682C142.94 12.0682 142.416 12.1918 141.939 12.4389C141.462 12.6776 141.078 13.0099 140.788 13.4361C140.507 13.8622 140.358 14.3608 140.341 14.9318V19.125C140.341 19.7557 140.473 20.3182 140.737 20.8125C141.001 21.3068 141.381 21.6946 141.875 21.9759C142.369 22.2571 142.966 22.3977 143.665 22.3977C144.151 22.3977 144.594 22.3295 144.994 22.1932C145.403 22.0568 145.753 21.8608 146.043 21.6051C146.332 21.3409 146.545 21.0256 146.682 20.6591H153.125C152.903 22.0227 152.379 23.2074 151.553 24.2131C150.726 25.2102 149.631 25.9858 148.267 26.5398C146.912 27.0852 145.327 27.358 143.511 27.358Z" fill="white"/>
</svg>
